<svg xmlns="http://www.w3.org/2000/svg" width="256" height="256" viewBox="0 0 100 100"><rect width="100" height="100" rx="50" fill="#142832"></rect><path fill="#fff" d="M23.09 20.87L23.09 20.87L23.09 24.83Q20.90 24.83 19.11 25.27Q17.33 25.70 16.35 26.75Q15.38 27.80 15.53 29.63L15.53 29.63L16.79 41.93Q17.06 44.45 16.49 46.10Q15.92 47.75 14.58 48.68Q13.25 49.61 11.18 50L11.18 50Q13.28 50.36 14.63 51.25Q15.98 52.13 16.52 53.77Q17.06 55.40 16.79 58.07L16.79 58.07L15.53 70.37Q15.38 72.23 16.34 73.28Q17.30 74.33 19.10 74.75Q20.90 75.17 23.09 75.17L23.09 75.17L23.09 79.13Q20.57 79.13 18.26 78.69Q15.95 78.26 14.18 77.21Q12.41 76.16 11.51 74.34Q10.61 72.53 10.91 69.77L10.91 69.77L12.11 58.37Q12.35 56.30 11.73 54.89Q11.12 53.48 9.09 52.75Q7.07 52.01 3.05 52.01L3.05 52.01L3.05 47.99Q7.07 47.99 9.09 47.27Q11.12 46.55 11.73 45.14Q12.35 43.73 12.11 41.69L12.11 41.69L10.91 30.23Q10.61 27.47 11.51 25.66Q12.41 23.84 14.16 22.79Q15.92 21.74 18.24 21.30Q20.57 20.87 23.09 20.87ZM64.19 59.57L64.19 59.57Q64.19 63.11 62.42 65.86Q60.65 68.60 57.29 70.14Q53.93 71.69 49.10 71.69L49.10 71.69Q44.57 71.69 40.89 70.31Q37.22 68.93 34.61 66.41L34.61 66.41L37.70 62.93Q39.86 64.94 42.65 66.13Q45.44 67.31 49.19 67.31L49.19 67.31Q51.71 67.31 53.90 66.48Q56.09 65.66 57.44 63.97Q58.79 62.27 58.79 59.66L58.79 59.66Q58.79 57.65 58.01 56.24Q57.23 54.83 55.25 53.73Q53.27 52.64 49.73 51.59L49.73 51.59Q45.65 50.39 42.66 48.88Q39.68 47.36 38.04 45.14Q36.41 42.92 36.41 39.65L36.41 39.65Q36.41 36.56 38.12 34.16Q39.83 31.76 42.84 30.40Q45.86 29.03 49.79 29.03L49.79 29.03Q54.08 29.03 57.24 30.25Q60.41 31.46 62.99 33.74L62.99 33.74L59.93 37.13Q57.71 35.15 55.16 34.27Q52.61 33.38 49.97 33.38L49.97 33.38Q47.72 33.38 45.84 34.05Q43.97 34.73 42.84 36.07Q41.72 37.40 41.72 39.47L41.72 39.47Q41.72 41.24 42.68 42.53Q43.64 43.82 45.92 44.89Q48.20 45.95 52.13 47.12L52.13 47.12Q55.34 48.05 58.08 49.45Q60.83 50.84 62.51 53.23Q64.19 55.61 64.19 59.57ZM76.91 24.83L76.91 20.87Q79.43 20.87 81.74 21.30Q84.05 21.74 85.82 22.79Q87.59 23.84 88.50 25.66Q89.42 27.47 89.09 30.23L89.09 30.23L87.89 41.69Q87.65 43.73 88.41 45.14Q89.18 46.55 91.22 47.27Q93.26 47.99 96.95 47.99L96.95 47.99L96.95 52.01Q93.29 52.01 91.23 52.75Q89.18 53.48 88.41 54.89Q87.65 56.30 87.89 58.37L87.89 58.37L89.09 69.77Q89.39 72.53 88.49 74.34Q87.59 76.16 85.84 77.21Q84.08 78.26 81.75 78.69Q79.43 79.13 76.91 79.13L76.91 79.13L76.91 75.17Q79.10 75.17 80.89 74.75Q82.67 74.33 83.66 73.28Q84.65 72.23 84.47 70.37L84.47 70.37L83.21 58.07Q82.94 55.40 83.51 53.77Q84.08 52.13 85.56 51.26Q87.05 50.39 89.48 50.06L89.48 50.06Q87.14 49.67 85.66 48.71Q84.17 47.75 83.57 46.10Q82.97 44.45 83.21 41.93L83.21 41.93L84.47 29.63Q84.65 27.80 83.66 26.75Q82.67 25.70 80.90 25.27Q79.13 24.83 76.91 24.83L76.91 24.83Z"></path></svg>
